<?xml version="1.0" encoding="UTF-8" standalone="no"?>
<!-- Created with Inkscape (http://www.inkscape.org/) -->

<svg
   xmlns:dc="http://purl.org/dc/elements/1.1/"
   xmlns:cc="http://creativecommons.org/ns#"
   xmlns:rdf="http://www.w3.org/1999/02/22-rdf-syntax-ns#"
   xmlns:svg="http://www.w3.org/2000/svg"
   xmlns="http://www.w3.org/2000/svg"
   xmlns:sodipodi="http://sodipodi.sourceforge.net/DTD/sodipodi-0.dtd"
   xmlns:inkscape="http://www.inkscape.org/namespaces/inkscape"
   width="55.2747mm"
   height="55.797798mm"
   viewBox="0 0 55.2747 55.797798"
   version="1.1"
   id="svg421"
   inkscape:version="0.92.5 (2060ec1f9f, 2020-04-08)"
   sodipodi:docname="npn.svg">
  <defs
     id="defs415" />
  <sodipodi:namedview
     id="base"
     pagecolor="#ffffff"
     bordercolor="#666666"
     borderopacity="1.0"
     inkscape:pageopacity="0.0"
     inkscape:pageshadow="2"
     inkscape:zoom="1.979899"
     inkscape:cx="-13.879085"
     inkscape:cy="34.272813"
     inkscape:document-units="mm"
     inkscape:current-layer="layer1"
     showgrid="false"
     fit-margin-top="2"
     fit-margin-left="2"
     fit-margin-right="2"
     fit-margin-bottom="2"
     inkscape:window-width="1880"
     inkscape:window-height="1016"
     inkscape:window-x="40"
     inkscape:window-y="27"
     inkscape:window-maximized="1" />
  <metadata
     id="metadata418">
    <rdf:RDF>
      <cc:Work
         rdf:about="">
        <dc:format>image/svg+xml</dc:format>
        <dc:type
           rdf:resource="http://purl.org/dc/dcmitype/StillImage" />
        <dc:title></dc:title>
      </cc:Work>
    </rdf:RDF>
  </metadata>
  <g
     inkscape:label="Layer 1"
     inkscape:groupmode="layer"
     id="layer1"
     transform="translate(83.577827,-67.261814)">
    <rect
       style="opacity:1;vector-effect:none;fill:#ffffff;fill-opacity:1;fill-rule:nonzero;stroke:#ffffff;stroke-width:1;stroke-linecap:butt;stroke-linejoin:miter;stroke-miterlimit:4;stroke-dasharray:none;stroke-dashoffset:0;stroke-opacity:1;paint-order:markers stroke fill"
       id="rect585"
       width="54.790253"
       height="54.790253"
       x="-83.043289"
       y="67.601181" />
    <path
       inkscape:connector-curvature="0"
       d="m -71.711427,101.88641 v 2 h 9.999999 v -2 z"
       style="fill:none;stroke:#000000;stroke-width:0.24999999;stroke-linecap:round;stroke-linejoin:round"
       id="path2" />
    <g
       transform="matrix(0.99999998,0,0,-0.99999998,-28.177828,272.46531)"
       style="fill:none;stroke-linecap:round;stroke-linejoin:round"
       id="g14">
      <path
         inkscape:connector-curvature="0"
         d="m -38.6665,172.6805 c 0.087,-0.0223 0.1612,-0.0644 0.2226,-0.1263 0.0613,-0.0619 0.1378,-0.1855 0.2294,-0.3709 l 0.3401,-0.6833 h -0.3635 l -0.2981,0.6313 c -0.086,0.1797 -0.1632,0.2956 -0.2319,0.3475 -0.0686,0.052 -0.1582,0.078 -0.2689,0.078 h -0.3231 V 171.5 H -39.7 v 2.5 h 0.6966 c 0.2748,0 0.4853,-0.0619 0.6316,-0.1857 0.1462,-0.1239 0.2194,-0.303 0.2194,-0.5375 0,-0.1652 -0.045,-0.3 -0.1348,-0.4045 -0.0899,-0.1045 -0.2163,-0.1684 -0.3793,-0.1918 m -0.6934,1.0415 v -0.8872 h 0.3702 c 0.1617,0 0.2823,0.0363 0.3616,0.1088 0.0794,0.0725 0.1191,0.1836 0.1191,0.3332 0,0.144 -0.0422,0.2542 -0.1265,0.3306 -0.0844,0.0764 -0.207,0.1146 -0.3679,0.1146 z"
         style="fill:#000000;fill-rule:evenodd"
         id="path10" />
      <path
         inkscape:connector-curvature="0"
         d="m -37.6276,171.9775 v -0.3663 h 0.16 c 0.0787,0 0.1347,0.0137 0.1682,0.0412 0.0335,0.0274 0.0502,0.0726 0.0502,0.1356 0,0.0652 -0.0177,0.1131 -0.053,0.1437 -0.0352,0.0305 -0.0904,0.0458 -0.1654,0.0458 z m 0,0.4113 v -0.3014 h 0.1573 c 0.0652,0 0.1124,0.0125 0.1417,0.0376 0.0293,0.025 0.0439,0.0654 0.0439,0.1212 0,0.0505 -0.0144,0.0869 -0.0432,0.1092 -0.0288,0.0223 -0.0762,0.0334 -0.1424,0.0334 z m -0.136,0.1112 h 0.296 c 0.1023,0 0.1811,-0.0221 0.2365,-0.0663 0.0554,-0.0442 0.0831,-0.1067 0.0831,-0.1875 0,-0.0612 -0.0146,-0.1094 -0.0439,-0.1447 -0.0293,-0.0353 -0.0732,-0.0574 -0.1316,-0.0663 0.0656,-0.01 0.1171,-0.0379 0.1544,-0.0841 0.0373,-0.0462 0.0559,-0.105 0.0559,-0.1765 0,-0.0907 -0.0297,-0.1591 -0.0891,-0.2053 -0.0594,-0.0462 -0.1479,-0.0693 -0.2653,-0.0693 h -0.296 z"
         style="fill:#000000;fill-rule:evenodd"
         id="path12" />
    </g>
    <g
       transform="matrix(0.99999998,0,0,-0.99999998,-28.177828,272.46531)"
       style="fill:none;stroke-linecap:round;stroke-linejoin:round"
       id="g18">
      <path
         inkscape:connector-curvature="0"
         d="m -41.1744,192.4586 h 0.8573 l 1.6874,-4.116 v 4.116 h 0.6535 v -5 h -0.8574 l -1.6881,4.1161 v -4.1161 h -0.6527 z m 4.9992,-0.556 v -1.8783 h 0.784 c 0.3127,0 0.5565,0.0826 0.7317,0.2478 0.1751,0.1652 0.2627,0.3963 0.2627,0.6934 0,0.2965 -0.0871,0.5268 -0.2611,0.6909 -0.1741,0.1642 -0.4185,0.2462 -0.7333,0.2462 z m -0.6761,0.556 h 1.4601 c 0.5582,0 0.9812,-0.1266 1.2691,-0.3799 0.288,-0.2533 0.432,-0.6244 0.432,-1.1132 0,-0.4937 -0.1435,-0.8667 -0.4303,-1.1189 -0.2869,-0.2522 -0.7105,-0.3783 -1.2708,-0.3783 h -0.784 v -2.0097 h -0.6761 z m 3.9347,0 h 0.8574 l 1.6873,-4.116 v 4.116 h 0.6536 v -5 h -0.8574 l -1.6882,4.1161 v -4.1161 h -0.6527 z"
         style="fill:#000000;fill-rule:evenodd"
         id="path16" />
    </g>
    <path
       inkscape:connector-curvature="0"
       d="m -45.380727,88.843311 h 1.999999 v -10 h -1.999999 z"
       style="fill:none;stroke:#000000;stroke-width:0.24999999;stroke-linecap:round;stroke-linejoin:round"
       id="path26" />
    <g
       transform="matrix(0.99999998,0,0,-0.99999998,-28.177828,272.46531)"
       style="fill:none;stroke-linecap:round;stroke-linejoin:round"
       id="g34">
      <path
         inkscape:connector-curvature="0"
         d="m -19.6665,188.6805 c 0.087,-0.0223 0.1612,-0.0644 0.2226,-0.1263 0.0613,-0.0619 0.1378,-0.1855 0.2294,-0.3709 l 0.3401,-0.6833 h -0.3635 l -0.2981,0.6313 c -0.086,0.1797 -0.1632,0.2956 -0.2319,0.3475 -0.0686,0.052 -0.1582,0.078 -0.2689,0.078 h -0.3231 V 187.5 H -20.7 v 2.5 h 0.6966 c 0.2748,0 0.4853,-0.0619 0.6316,-0.1857 0.1462,-0.1239 0.2194,-0.303 0.2194,-0.5375 0,-0.1652 -0.045,-0.3 -0.1348,-0.4045 -0.0899,-0.1045 -0.2163,-0.1684 -0.3793,-0.1918 m -0.6934,1.0415 v -0.8872 h 0.3702 c 0.1617,0 0.2822,0.0363 0.3614,0.1088 0.0793,0.0725 0.1189,0.1836 0.1189,0.3332 0,0.144 -0.0421,0.2542 -0.1263,0.3306 -0.0842,0.0764 -0.2068,0.1146 -0.3677,0.1146 z"
         style="fill:#000000;fill-rule:evenodd"
         id="path30" />
      <path
         inkscape:connector-curvature="0"
         d="m -18.7308,188.5 h 0.1359 v -0.8861 h 0.483 V 187.5 h -0.6189 z"
         style="fill:#000000;fill-rule:evenodd"
         id="path32" />
    </g>
    <path
       inkscape:connector-curvature="0"
       d="m -44.380729,78.843311 v -5.3759"
       style="fill:none;stroke:#000000;stroke-width:0.24999999;stroke-linecap:round;stroke-linejoin:round"
       id="path42" />
    <path
       inkscape:connector-curvature="0"
       d="m -44.380729,73.467411 h 8.741402"
       style="fill:none;stroke:#000000;stroke-width:0.24999999;stroke-linecap:round;stroke-linejoin:round"
       id="path44" />
    <circle
       transform="scale(1,-1)"
       cx="-35.13932"
       cy="-73.467369"
       r="0.49999997"
       style="fill:none;stroke:#000000;stroke-width:0.24999999;stroke-linecap:round;stroke-linejoin:round"
       id="circle46" />
    <path
       inkscape:connector-curvature="0"
       d="m -61.711428,102.88641 h 13.922199"
       style="fill:none;stroke:#000000;stroke-width:0.24999999;stroke-linecap:round;stroke-linejoin:round"
       id="path48" />
    <path
       inkscape:connector-curvature="0"
       d="M -44.380729,88.843311 V 99.832812"
       style="fill:none;stroke:#000000;stroke-width:0.24999999;stroke-linecap:round;stroke-linejoin:round"
       id="path52" />
    <path
       inkscape:connector-curvature="0"
       d="m -47.789229,99.832812 v 6.107298"
       style="fill:none;stroke:#000000;stroke-width:0.24999999;stroke-linecap:round;stroke-linejoin:round"
       id="path56" />
    <path
       inkscape:connector-curvature="0"
       d="m -47.789229,100.85951 3.4085,-1.026698"
       style="fill:none;stroke:#000000;stroke-width:0.24999999;stroke-linecap:round;stroke-linejoin:round"
       id="path60" />
    <g
       transform="matrix(0.99999998,0,0,-0.99999998,-28.177828,272.46531)"
       style="fill:none;stroke-linecap:round;stroke-linejoin:round"
       id="g68">
      <path
         inkscape:connector-curvature="0"
         d="m -18.8462,169.6486 v -0.7326 h 0.32 c 0.1573,0 0.2694,0.0274 0.3364,0.0824 0.0669,0.0549 0.1004,0.1453 0.1004,0.2712 0,0.1304 -0.0353,0.2262 -0.1059,0.2873 -0.0706,0.0612 -0.1809,0.0917 -0.3309,0.0917 z m 0,0.8226 v -0.6027 h 0.3145 c 0.1305,0 0.225,0.025 0.2835,0.0751 0.0586,0.05 0.0879,0.1308 0.0879,0.2423 0,0.101 -0.0288,0.1738 -0.0864,0.2184 -0.0576,0.0446 -0.1526,0.0669 -0.285,0.0669 z m -0.2721,0.2224 h 0.5921 c 0.2046,0 0.3623,-0.0442 0.473,-0.1326 0.1108,-0.0885 0.1662,-0.2135 0.1662,-0.3751 0,-0.1222 -0.0293,-0.2187 -0.0878,-0.2892 -0.0586,-0.0706 -0.1463,-0.1148 -0.2632,-0.1327 0.1313,-0.0197 0.2342,-0.0758 0.3088,-0.1682 0.0745,-0.0924 0.1118,-0.2101 0.1118,-0.353 0,-0.1813 -0.0594,-0.3182 -0.1782,-0.4106 -0.1189,-0.0924 -0.2957,-0.1386 -0.5306,-0.1386 h -0.5921 z"
         style="fill:#000000;fill-rule:evenodd"
         id="path66" />
    </g>
    <g
       transform="matrix(0.99999998,0,0,-0.99999998,-28.177828,272.46531)"
       style="fill:none;stroke-linecap:round;stroke-linejoin:round"
       id="g76">
      <path
         inkscape:connector-curvature="0"
         d="m -17.1674,173.099 c -0.0688,-0.0365 -0.1394,-0.064 -0.2118,-0.0823 -0.0724,-0.0184 -0.1492,-0.0276 -0.2304,-0.0276 -0.2564,0 -0.4553,0.0907 -0.5968,0.272 -0.1415,0.1814 -0.2123,0.4364 -0.2123,0.7649 0,0.3271 0.0713,0.5819 0.2137,0.7645 0.1425,0.1827 0.3409,0.274 0.5954,0.274 0.0812,0 0.158,-0.009 0.2304,-0.0275 0.0724,-0.0184 0.143,-0.0459 0.2118,-0.0824 v -0.2775 c -0.0662,0.0546 -0.1372,0.0962 -0.2131,0.1247 -0.0758,0.0286 -0.1522,0.0429 -0.2291,0.0429 -0.176,0 -0.3078,-0.0679 -0.3952,-0.2037 -0.0875,-0.1358 -0.1312,-0.3408 -0.1312,-0.615 0,-0.2731 0.0437,-0.4776 0.1312,-0.6134 0.0874,-0.1358 0.2192,-0.2037 0.3952,-0.2037 0.0786,0 0.1556,0.0143 0.2311,0.0429 0.0754,0.0286 0.1458,0.0701 0.2111,0.1247 z"
         style="fill:#000000;fill-rule:evenodd"
         id="path74" />
    </g>
    <g
       transform="matrix(0.99999998,0,0,-0.99999998,-28.177828,272.46531)"
       style="fill:none;stroke-linecap:round;stroke-linejoin:round"
       id="g84">
      <path
         inkscape:connector-curvature="0"
         d="m -18.3283,166.0296 h 1.1868 v -0.2276 h -0.9163 v -0.5921 h 0.8764 v -0.2279 h -0.8764 v -0.7245 h 0.9418 v -0.2279 h -1.2123 z"
         style="fill:#000000;fill-rule:evenodd"
         id="path82" />
    </g>
    <path
       inkscape:connector-curvature="0"
       d="m -44.380729,105.94011 v 7.4761"
       style="fill:none;stroke:#000000;stroke-width:0.24999999;stroke-linecap:round;stroke-linejoin:round"
       id="path90" />
    <path
       inkscape:connector-curvature="0"
       d="m -44.380729,94.33801 h 8.741402"
       style="fill:none;stroke:#000000;stroke-width:0.24999999;stroke-linecap:round;stroke-linejoin:round"
       id="path94" />
    <circle
       transform="scale(1,-1)"
       cx="-35.13932"
       cy="-94.338036"
       r="0.49999997"
       style="fill:none;stroke:#000000;stroke-width:0.24999999;stroke-linecap:round;stroke-linejoin:round"
       id="circle98" />
    <path
       inkscape:connector-curvature="0"
       d="m -44.380729,113.41621 h 8.741402"
       style="fill:none;stroke:#000000;stroke-width:0.24999999;stroke-linecap:round;stroke-linejoin:round"
       id="path102" />
    <circle
       transform="scale(1,-1)"
       cx="-35.13932"
       cy="-113.41622"
       r="0.49999997"
       style="fill:none;stroke:#000000;stroke-width:0.24999999;stroke-linecap:round;stroke-linejoin:round"
       id="circle106" />
    <circle
       transform="scale(1,-1)"
       cx="-44.380756"
       cy="-113.41622"
       r="0.49999997"
       style="fill:none;stroke:#000000;stroke-width:0.24999999;stroke-linecap:round;stroke-linejoin:round"
       id="circle110" />
    <path
       inkscape:connector-curvature="0"
       d="m -43.880727,113.41621 a 0.5000005,0.5000005 0 0 0 -1.000001,0 0.5000005,0.5000005 0 0 0 1.000001,0"
       style="fill:#000000;fill-rule:evenodd;stroke-width:0.99999994;stroke-linecap:round;stroke-linejoin:round"
       id="path114" />
    <path
       inkscape:connector-curvature="0"
       d="m -71.711427,102.88641 h -8.7414"
       style="fill:none;stroke:#000000;stroke-width:0.24999999;stroke-linecap:round;stroke-linejoin:round"
       id="path118" />
    <circle
       transform="scale(1,-1)"
       cx="-80.952827"
       cy="-102.88642"
       r="0.49999997"
       style="fill:none;stroke:#000000;stroke-width:0.24999999;stroke-linecap:round;stroke-linejoin:round"
       id="circle122" />
    <path
       inkscape:connector-curvature="0"
       d="M -44.380729,113.41621 H -80.452827"
       style="fill:none;stroke:#000000;stroke-width:0.24999999;stroke-linecap:round;stroke-linejoin:round"
       id="path128" />
    <circle
       transform="scale(1,-1)"
       cx="-80.952827"
       cy="-113.41622"
       r="0.49999997"
       style="fill:none;stroke:#000000;stroke-width:0.24999999;stroke-linecap:round;stroke-linejoin:round"
       id="circle130" />
    <g
       transform="matrix(0.99999998,0,0,-0.99999998,-28.177828,272.46531)"
       style="fill:none;stroke-linecap:round;stroke-linejoin:round"
       id="g136">
      <path
         inkscape:connector-curvature="0"
         d="m -15.3081,177.215 h 1.3884 v -0.2845 h -0.5242 v -1.9307 h 0.5242 v -0.2848 h -1.3884 v 0.2848 h 0.5242 v 1.9307 h -0.5242 z"
         style="fill:#000000;fill-rule:evenodd"
         id="path132" />
      <path
         inkscape:connector-curvature="0"
         d="m -12.8613,174.7504 c -0.0343,-0.0182 -0.0696,-0.032 -0.1058,-0.0412 -0.0362,-0.009 -0.0747,-0.0137 -0.1153,-0.0137 -0.1281,0 -0.2276,0.0453 -0.2984,0.136 -0.0707,0.0907 -0.1061,0.2181 -0.1061,0.3824 0,0.1635 0.0356,0.291 0.1069,0.3823 0.0712,0.0913 0.1704,0.137 0.2976,0.137 0.0406,0 0.0791,-0.005 0.1153,-0.0138 0.0362,-0.009 0.0715,-0.0229 0.1058,-0.0412 v -0.1387 c -0.033,0.0273 -0.0686,0.048 -0.1065,0.0623 -0.0379,0.0143 -0.0761,0.0215 -0.1146,0.0215 -0.088,0 -0.1538,-0.034 -0.1976,-0.1019 -0.0437,-0.0679 -0.0655,-0.1704 -0.0655,-0.3075 0,-0.1365 0.0218,-0.2388 0.0655,-0.3067 0.0438,-0.0679 0.1096,-0.1018 0.1976,-0.1018 0.0394,0 0.0779,0.007 0.1156,0.0214 0.0377,0.0143 0.0729,0.0351 0.1055,0.0624 z"
         style="fill:#000000;fill-rule:evenodd"
         id="path134" />
    </g>
    <g
       transform="matrix(0.99999998,0,0,-0.99999998,-28.177828,272.46531)"
       style="fill:none;stroke-linecap:round;stroke-linejoin:round"
       id="g142">
      <path
         inkscape:connector-curvature="0"
         d="m -15.4524,163.2744 h 1.3884 v -0.2845 h -0.5242 v -1.9307 h 0.5242 v -0.2848 h -1.3884 v 0.2848 h 0.5242 v 1.9307 h -0.5242 z"
         style="fill:#000000;fill-rule:evenodd"
         id="path138" />
      <path
         inkscape:connector-curvature="0"
         d="m -13.5924,161.7744 h 0.5934 v -0.1138 h -0.4582 v -0.2961 h 0.4382 v -0.1139 h -0.4382 v -0.3623 h 0.471 v -0.1139 h -0.6062 z"
         style="fill:#000000;fill-rule:evenodd"
         id="path140" />
    </g>
    <g
       transform="matrix(0.99999998,0,0,-0.99999998,-28.177828,272.46531)"
       style="fill:none;stroke-linecap:round;stroke-linejoin:round"
       id="g148">
      <path
         inkscape:connector-curvature="0"
         d="m -26.3004,173.2598 h 1.3884 v -0.2845 h -0.5242 v -1.9307 h 0.5242 v -0.2848 h -1.3884 v 0.2848 h 0.5242 v 1.9307 h -0.5242 z"
         style="fill:#000000;fill-rule:evenodd"
         id="path144" />
      <path
         inkscape:connector-curvature="0"
         d="m -24.3251,171.2373 v -0.3663 h 0.16 c 0.0787,0 0.1347,0.0137 0.1682,0.0411 0.0335,0.0275 0.0502,0.0727 0.0502,0.1356 0,0.0653 -0.0177,0.1132 -0.053,0.1437 -0.0352,0.0306 -0.0904,0.0459 -0.1654,0.0459 z m 0,0.4112 v -0.3013 h 0.1573 c 0.0652,0 0.1124,0.0125 0.1417,0.0375 0.0293,0.0251 0.0439,0.0655 0.0439,0.1212 0,0.0505 -0.0144,0.0869 -0.0432,0.1092 -0.0288,0.0223 -0.0762,0.0334 -0.1424,0.0334 z m -0.136,0.1113 h 0.296 c 0.1023,0 0.1811,-0.0222 0.2365,-0.0664 0.0554,-0.0442 0.0831,-0.1067 0.0831,-0.1875 0,-0.0611 -0.0146,-0.1093 -0.0439,-0.1446 -0.0293,-0.0353 -0.0732,-0.0574 -0.1316,-0.0663 0.0656,-0.01 0.1171,-0.038 0.1544,-0.0842 0.0373,-0.0462 0.0559,-0.105 0.0559,-0.1764 0,-0.0907 -0.0297,-0.1592 -0.0891,-0.2054 -0.0594,-0.0462 -0.1479,-0.0692 -0.2653,-0.0692 h -0.296 z"
         style="fill:#000000;fill-rule:evenodd"
         id="path146" />
    </g>
    <path
       inkscape:connector-curvature="0"
       d="m -44.380729,96.827211 -0.3512,-0.587301"
       style="fill:none;stroke:#000000;stroke-width:0.24999999;stroke-linecap:round;stroke-linejoin:round"
       id="path168" />
    <path
       inkscape:connector-curvature="0"
       d="m -44.380729,110.45971 -0.3512,-0.5873"
       style="fill:none;stroke:#000000;stroke-width:0.24999999;stroke-linecap:round;stroke-linejoin:round"
       id="path170" />
    <path
       inkscape:connector-curvature="0"
       d="m -53.207128,102.88641 -0.587299,0.3512"
       style="fill:none;stroke:#000000;stroke-width:0.24999999;stroke-linecap:round;stroke-linejoin:round"
       id="path172" />
    <path
       inkscape:connector-curvature="0"
       d="m -44.380729,96.827211 0.351102,-0.587301"
       style="fill:none;stroke:#000000;stroke-width:0.24999999;stroke-linecap:round;stroke-linejoin:round"
       id="path180" />
    <path
       inkscape:connector-curvature="0"
       d="m -44.380729,110.45971 0.351102,-0.5873"
       style="fill:none;stroke:#000000;stroke-width:0.24999999;stroke-linecap:round;stroke-linejoin:round"
       id="path182" />
    <path
       inkscape:connector-curvature="0"
       d="m -53.207128,102.88641 -0.587299,-0.3511"
       style="fill:none;stroke:#000000;stroke-width:0.24999999;stroke-linecap:round;stroke-linejoin:round"
       id="path184" />
    <g
       transform="matrix(0.99999998,0,0,-0.99999998,-28.177828,272.46531)"
       style="fill:none;stroke-linecap:round;stroke-linejoin:round"
       id="g194">
      <path
         inkscape:connector-curvature="0"
         d="m -6.9996,200.9883 0.5879,2.2152 h 0.3501 l -0.7317,-2.5 h -0.4105 l -0.7317,2.5 h 0.3501 z m 2.8099,-0.1893 c -0.0828,-0.0481 -0.1679,-0.0842 -0.2555,-0.1082 -0.0875,-0.024 -0.1771,-0.0361 -0.2687,-0.0361 -0.2904,0 -0.5173,0.0871 -0.6807,0.2613 -0.1634,0.1742 -0.2452,0.4153 -0.2452,0.7234 0,0.3081 0.0818,0.5492 0.2452,0.7234 0.1634,0.1742 0.3903,0.2613 0.6807,0.2613 0.0905,0 0.1788,-0.0117 0.2647,-0.035 0.086,-0.0234 0.1725,-0.0597 0.2595,-0.1088 v -0.3232 c -0.0817,0.0726 -0.1635,0.125 -0.2456,0.1574 -0.082,0.0323 -0.1749,0.0485 -0.2786,0.0485 -0.1931,0 -0.3416,-0.0625 -0.4454,-0.1875 -0.1038,-0.1251 -0.1557,-0.3037 -0.1557,-0.5361 0,-0.231 0.0522,-0.4093 0.1565,-0.5348 0.1044,-0.1256 0.2526,-0.1884 0.4446,-0.1884 0.1072,0 0.2032,0.0165 0.2881,0.0494 0.0849,0.0329 0.1636,0.084 0.2361,0.1533 z m 2.0644,0 c -0.0827,-0.0481 -0.1678,-0.0842 -0.2554,-0.1082 -0.0876,-0.024 -0.1771,-0.0361 -0.2687,-0.0361 -0.2904,0 -0.5173,0.0871 -0.6807,0.2613 -0.1635,0.1742 -0.2452,0.4153 -0.2452,0.7234 0,0.3081 0.0817,0.5492 0.2452,0.7234 0.1634,0.1742 0.3903,0.2613 0.6807,0.2613 0.0905,0 0.1787,-0.0117 0.2647,-0.035 0.0859,-0.0234 0.1724,-0.0597 0.2594,-0.1088 v -0.3232 c -0.0816,0.0726 -0.1635,0.125 -0.2455,0.1574 -0.0821,0.0323 -0.175,0.0485 -0.2786,0.0485 -0.1932,0 -0.3416,-0.0625 -0.4454,-0.1875 -0.1039,-0.1251 -0.1558,-0.3037 -0.1558,-0.5361 0,-0.231 0.0522,-0.4093 0.1566,-0.5348 0.1043,-0.1256 0.2525,-0.1884 0.4446,-0.1884 0.1071,0 0.2032,0.0165 0.288,0.0494 0.0849,0.0329 0.1636,0.084 0.2361,0.1533 z"
         style="fill:#000000;fill-rule:evenodd"
         id="path192" />
    </g>
    <path
       inkscape:connector-curvature="0"
       d="m -44.380729,113.41621 v 2.171"
       style="fill:none;stroke:#000000;stroke-width:0.24999999;stroke-linecap:round;stroke-linejoin:round"
       id="path200" />
    <path
       inkscape:connector-curvature="0"
       d="m -43.441127,115.58721 h -1.879201"
       style="fill:none;stroke:#000000;stroke-width:0.24999999;stroke-linecap:round;stroke-linejoin:round"
       id="path204" />
    <path
       inkscape:connector-curvature="0"
       d="m -43.754328,115.95701 h -1.252799"
       style="fill:none;stroke:#000000;stroke-width:0.24999999;stroke-linecap:round;stroke-linejoin:round"
       id="path208" />
    <path
       inkscape:connector-curvature="0"
       d="m -44.067528,116.32681 h -0.626399"
       style="fill:none;stroke:#000000;stroke-width:0.24999999;stroke-linecap:round;stroke-linejoin:round"
       id="path212" />
    <g
       transform="matrix(0.99999998,0,0,-0.99999998,-28.177828,272.46531)"
       style="fill:none;stroke-linecap:round;stroke-linejoin:round"
       id="g218">
      <path
         inkscape:connector-curvature="0"
         d="m -17.0219,151.6604 c -0.0905,-0.0836 -0.1924,-0.1469 -0.3058,-0.19 -0.1133,-0.0431 -0.2358,-0.0647 -0.3674,-0.0647 -0.3173,0 -0.564,0.1136 -0.7404,0.3409 -0.1763,0.2272 -0.2645,0.5456 -0.2645,0.9553 0,0.4088 0.0893,0.7273 0.268,0.9556 0.1786,0.2283 0.427,0.3425 0.7453,0.3425 0.1048,0 0.2052,-0.0148 0.3012,-0.0445 0.096,-0.0297 0.1887,-0.0746 0.2782,-0.1348 v -0.3469 c -0.0905,0.086 -0.1833,0.1494 -0.2782,0.1902 -0.095,0.0408 -0.1954,0.0612 -0.3012,0.0612 -0.22,0 -0.385,-0.0851 -0.4949,-0.2554 -0.11,-0.1703 -0.165,-0.4263 -0.165,-0.7679 0,-0.3471 0.0533,-0.6041 0.1599,-0.771 0.1067,-0.1669 0.2705,-0.2504 0.4916,-0.2504 0.0746,0 0.1402,0.009 0.1966,0.026 0.0564,0.0173 0.1074,0.0444 0.1531,0.0812 v 0.6716 h -0.363 v 0.278 h 0.6865 z m 0.4484,2.2941 h 0.4287 l 0.8441,-2.058 v 2.058 h 0.3263 v -2.5 h -0.4286 l -0.8441,2.058 v -2.058 h -0.3264 z m 2.5617,-2.222 c 0.2847,0 0.4835,0.07 0.5963,0.2101 0.1128,0.1401 0.1692,0.3932 0.1692,0.7593 0,0.3695 -0.0562,0.6244 -0.1684,0.7645 -0.1123,0.14 -0.3113,0.2101 -0.5971,0.2101 h -0.1608 v -1.944 z m 0.0068,2.222 c 0.3817,0 0.663,-0.1016 0.8439,-0.3048 0.1809,-0.2032 0.2714,-0.5192 0.2714,-0.9478 0,-0.4263 -0.0905,-0.7408 -0.2714,-0.9434 -0.1809,-0.2027 -0.4622,-0.304 -0.8439,-0.304 h -0.5076 v 2.5 z"
         style="fill:#000000;fill-rule:evenodd"
         id="path216" />
    </g>
    <g
       transform="matrix(0.99999998,0,0,-0.99999998,-28.177828,272.46531)"
       style="fill:none;stroke-linecap:round;stroke-linejoin:round"
       id="g234">
      <path
         inkscape:connector-curvature="0"
         d="m -47.775,169.5789 0.4163,-2.5 h -0.8326 z"
         style="fill:#000000;fill-rule:evenodd;stroke:#000000;stroke-width:0.09"
         id="path224" />
      <path
         inkscape:connector-curvature="0"
         d="m -47.775,159.0491 -0.4163,2.5 h 0.8326 z"
         style="fill:#000000;fill-rule:evenodd;stroke:#000000;stroke-width:0.09"
         id="path226" />
      <g
         id="g232">
        <path
           inkscape:connector-curvature="0"
           d="m -51.068,163.064 2.5,0.8333 -2.5,0.8333"
           style="stroke:#000000;stroke-width:0.09"
           id="path228" />
        <path
           inkscape:connector-curvature="0"
           d="m -49.568,165.564 h 1"
           style="stroke:#000000;stroke-width:0.09"
           id="path230" />
      </g>
    </g>
    <path
       inkscape:connector-curvature="0"
       d="m -75.952827,102.88641 v 10.5298"
       style="fill:none;stroke:#000000;stroke-width:0.09;stroke-linecap:round;stroke-linejoin:round"
       id="path236" />
    <g
       transform="matrix(0.99999998,0,0,-0.99999998,-28.177828,272.46531)"
       style="fill:none;stroke-linecap:round;stroke-linejoin:round"
       id="g262">
      <path
         inkscape:connector-curvature="0"
         d="m -27.6156,169.5789 0.4163,-2.5 h -0.8326 z"
         style="fill:#000000;fill-rule:evenodd;stroke:#000000;stroke-width:0.09"
         id="path252" />
      <path
         inkscape:connector-curvature="0"
         d="m -27.6156,159.0491 -0.4163,2.5 h 0.8326 z"
         style="fill:#000000;fill-rule:evenodd;stroke:#000000;stroke-width:0.09"
         id="path254" />
      <g
         id="g260">
        <path
           inkscape:connector-curvature="0"
           d="m -31.068,162.3973 2.5,0.8333 -2.5,0.8334"
           style="stroke:#000000;stroke-width:0.09"
           id="path256" />
        <path
           inkscape:connector-curvature="0"
           d="m -29.1235,164.8973 v 0.2889 c 0,0.0131 0.0025,0.0392 0.0051,0.052 0.0026,0.0129 0.0102,0.0379 0.0152,0.05 0.005,0.0121 0.0173,0.0353 0.0246,0.0461 0.0073,0.0109 0.0239,0.0312 0.0332,0.0405 0.0092,0.009 0.0295,0.0258 0.0404,0.0331 0.0109,0.007 0.034,0.0197 0.0461,0.0247 0.0121,0.005 0.0372,0.0126 0.05,0.0151 0.0129,0.003 0.0389,0.005 0.052,0.005 h 0.0223 c 0.0131,0 0.0391,-0.003 0.052,-0.005 0.0128,-0.002 0.0379,-0.0101 0.05,-0.0151 0.0121,-0.005 0.0352,-0.0174 0.0461,-0.0247 0.0109,-0.007 0.0312,-0.0239 0.0404,-0.0331 0.0093,-0.009 0.0259,-0.0295 0.0332,-0.0404 0.0073,-0.0109 0.0196,-0.034 0.0246,-0.0461 0.005,-0.0121 0.0127,-0.0372 0.0152,-0.0501 0.0026,-0.0128 0.0051,-0.0389 0.0051,-0.052 v -0.2889 h -1 v 0.2778 c 0,0.0109 0.0022,0.0326 0.0043,0.0433 0.0021,0.0108 0.0085,0.0316 0.0127,0.0417 0.0041,0.0101 0.0144,0.0294 0.0205,0.0385 0.0061,0.009 0.0199,0.0259 0.0276,0.0336 0.0077,0.008 0.0246,0.0216 0.0337,0.0277 0.0091,0.006 0.0283,0.0163 0.0384,0.0205 0.0101,0.004 0.031,0.0105 0.0417,0.0126 0.0107,0.002 0.0324,0.004 0.0434,0.004 0.0109,0 0.0326,-0.002 0.0433,-0.004 0.0107,-0.002 0.0316,-0.008 0.0417,-0.0126 0.0101,-0.004 0.0293,-0.0145 0.0384,-0.0205 0.0091,-0.006 0.026,-0.02 0.0337,-0.0277 0.0077,-0.008 0.0216,-0.0246 0.0276,-0.0336 0.0061,-0.009 0.0164,-0.0284 0.0206,-0.0385 0.0041,-0.0101 0.0105,-0.0309 0.0126,-0.0417 0.0021,-0.0107 0.0043,-0.0324 0.0043,-0.0433 m -0.4445,1.0555 v -0.4444 h 1 v 0.4444 m -0.5555,-0.4444 v 0.3333"
           style="stroke:#000000;stroke-width:0.09"
           id="path258" />
      </g>
    </g>
    <path
       inkscape:connector-curvature="0"
       d="m -55.793428,102.88641 v 10.5298"
       style="fill:none;stroke:#000000;stroke-width:0.09;stroke-linecap:round;stroke-linejoin:round"
       id="path264" />
    <g
       transform="matrix(0.99999998,0,0,-0.99999998,-28.177828,272.46531)"
       style="fill:none;stroke-linecap:round;stroke-linejoin:round"
       id="g290">
      <path
         inkscape:connector-curvature="0"
         d="m -9.5593,178.1273 0.4163,-2.5 h -0.8326 z"
         style="fill:#000000;fill-rule:evenodd;stroke:#000000;stroke-width:0.05"
         id="path280" />
      <path
         inkscape:connector-curvature="0"
         d="m -9.5593,159.0491 -0.4163,2.5 h 0.8326 z"
         style="fill:#000000;fill-rule:evenodd;stroke:#000000;stroke-width:0.05"
         id="path282" />
      <g
         id="g288">
        <path
           inkscape:connector-curvature="0"
           d="m -13.068,166.7271 2.5,0.8333 -2.5,0.8333"
           style="stroke:#000000;stroke-width:0.05"
           id="path284" />
        <path
           inkscape:connector-curvature="0"
           d="m -11.568,169.6715 v -0.2222 c 0,-0.0109 0.0022,-0.0327 0.0043,-0.0434 0.0021,-0.0107 0.0085,-0.0316 0.0127,-0.0417 0.0041,-0.01 0.0144,-0.0293 0.0205,-0.0384 0.0061,-0.009 0.0199,-0.0259 0.0276,-0.0336 0.0077,-0.008 0.0246,-0.0216 0.0337,-0.0277 0.0091,-0.006 0.0283,-0.0163 0.0384,-0.0205 0.0101,-0.004 0.031,-0.0105 0.0417,-0.0127 0.0107,-0.002 0.0324,-0.004 0.0434,-0.004 h 0.5555 c 0.0109,0 0.0327,0.002 0.0434,0.004 0.0107,0.002 0.0316,0.008 0.0417,0.0127 0.01,0.004 0.0293,0.0145 0.0384,0.0205 0.0091,0.006 0.0259,0.0199 0.0337,0.0277 0.0077,0.008 0.0215,0.0246 0.0276,0.0336 0.0061,0.009 0.0163,0.0284 0.0205,0.0385 0.0042,0.01 0.0105,0.0309 0.0127,0.0416 0.0021,0.0107 0.0042,0.0325 0.0042,0.0434 v 0.2222 m -1,0.7778 v -0.4445 h 1 v 0.4445 m -0.5555,-0.4445 v 0.3334"
           style="stroke:#000000;stroke-width:0.05"
           id="path286" />
      </g>
    </g>
    <path
       inkscape:connector-curvature="0"
       d="m -37.737129,94.33801 v 19.0782"
       style="fill:none;stroke:#000000;stroke-width:0.05;stroke-linecap:round;stroke-linejoin:round"
       id="path292" />
    <path
       inkscape:connector-curvature="0"
       d="m -44.380729,105.94011 -3.4085,-1.0267"
       style="fill:none;stroke:#000000;stroke-width:0.24999999;stroke-linecap:round;stroke-linejoin:round"
       id="path308" />
  </g>
</svg>
