<?xml version="1.0" encoding="UTF-8" standalone="no"?>
<!-- Created with Inkscape (http://www.inkscape.org/) -->

<svg
   xmlns:dc="http://purl.org/dc/elements/1.1/"
   xmlns:cc="http://creativecommons.org/ns#"
   xmlns:rdf="http://www.w3.org/1999/02/22-rdf-syntax-ns#"
   xmlns:svg="http://www.w3.org/2000/svg"
   xmlns="http://www.w3.org/2000/svg"
   xmlns:sodipodi="http://sodipodi.sourceforge.net/DTD/sodipodi-0.dtd"
   xmlns:inkscape="http://www.inkscape.org/namespaces/inkscape"
   width="66.278046mm"
   height="58.500599mm"
   viewBox="0 0 66.278046 58.500599"
   version="1.1"
   id="svg783"
   inkscape:version="0.92.5 (2060ec1f9f, 2020-04-08)"
   sodipodi:docname="pnp.svg">
  <defs
     id="defs777" />
  <sodipodi:namedview
     id="base"
     pagecolor="#ffffff"
     bordercolor="#666666"
     borderopacity="1.0"
     inkscape:pageopacity="0.0"
     inkscape:pageshadow="2"
     inkscape:zoom="2.8"
     inkscape:cx="127.82433"
     inkscape:cy="109.08164"
     inkscape:document-units="mm"
     inkscape:current-layer="layer1"
     showgrid="false"
     fit-margin-top="5"
     fit-margin-left="5"
     fit-margin-right="5"
     fit-margin-bottom="5"
     inkscape:window-width="1880"
     inkscape:window-height="1016"
     inkscape:window-x="40"
     inkscape:window-y="27"
     inkscape:window-maximized="1" />
  <metadata
     id="metadata780">
    <rdf:RDF>
      <cc:Work
         rdf:about="">
        <dc:format>image/svg+xml</dc:format>
        <dc:type
           rdf:resource="http://purl.org/dc/dcmitype/StillImage" />
        <dc:title></dc:title>
      </cc:Work>
    </rdf:RDF>
  </metadata>
  <g
     inkscape:label="Layer 1"
     inkscape:groupmode="layer"
     id="layer1"
     transform="translate(17.264024,-116.55922)">
    <rect
       style="opacity:1;vector-effect:none;fill:#ffffff;fill-opacity:1;fill-rule:nonzero;stroke:#ffffff;stroke-width:1;stroke-linecap:butt;stroke-linejoin:miter;stroke-miterlimit:4;stroke-dasharray:none;stroke-dashoffset:0;stroke-opacity:1;paint-order:markers stroke fill"
       id="rect947"
       width="65.1064"
       height="57.168896"
       x="-16.69706"
       y="117.13497" />
    <path
       inkscape:connector-curvature="0"
       d="m -2.3975758,135.16902 v 2 h 10 v -2 z"
       style="fill:none;stroke:#000000;stroke-width:0.24999999;stroke-linecap:round;stroke-linejoin:round"
       id="path4" />
    <g
       transform="matrix(0.99999998,0,0,-0.99999998,-24.008675,327.03232)"
       style="fill:none;stroke-linecap:round;stroke-linejoin:round"
       id="g8">
      <path
         inkscape:connector-curvature="0"
         d="m 27.9182,179.5012 v -1.8783 h 0.784 c 0.3127,0 0.5566,0.0826 0.7317,0.2478 0.1751,0.1652 0.2627,0.3963 0.2627,0.6934 0,0.2965 -0.087,0.5269 -0.2611,0.691 -0.174,0.1641 -0.4185,0.2461 -0.7333,0.2461 z m -0.6761,0.556 h 1.4601 c 0.5582,0 0.9812,-0.1266 1.2692,-0.3799 0.2879,-0.2533 0.4319,-0.6243 0.4319,-1.1132 0,-0.4937 -0.1434,-0.8666 -0.4303,-1.1189 -0.2869,-0.2522 -0.7105,-0.3783 -1.2708,-0.3783 h -0.784 v -2.0097 h -0.6761 z m 3.9348,0 h 0.8573 l 1.6882,-4.116 v 4.116 h 0.6527 v -5 h -0.8574 l -1.6881,4.1161 v -4.1161 h -0.6527 z m 4.9991,-0.556 v -1.8783 h 0.7841 c 0.3126,0 0.5565,0.0826 0.7317,0.2478 0.1751,0.1652 0.2627,0.3963 0.2627,0.6934 0,0.2965 -0.0871,0.5269 -0.2611,0.691 -0.1741,0.1641 -0.4185,0.2461 -0.7333,0.2461 z m -0.676,0.556 h 1.4601 c 0.5581,0 0.9812,-0.1266 1.2691,-0.3799 0.288,-0.2533 0.4319,-0.6243 0.4319,-1.1132 0,-0.4937 -0.1434,-0.8666 -0.4303,-1.1189 -0.2868,-0.2522 -0.7104,-0.3783 -1.2707,-0.3783 H 36.176 v -2.0097 H 35.5 Z"
         style="fill:#000000;fill-rule:evenodd"
         id="path6" />
    </g>
    <g
       transform="matrix(0.99999998,0,0,-0.99999998,-24.008675,327.03232)"
       style="fill:none;stroke-linecap:round;stroke-linejoin:round"
       id="g24">
      <path
         inkscape:connector-curvature="0"
         d="m 26.5773,194.0511 c 0.087,-0.0223 0.1612,-0.0644 0.2226,-0.1263 0.0614,-0.0619 0.1379,-0.1855 0.2295,-0.3709 l 0.34,-0.6833 H 27.006 l -0.2982,0.6314 c -0.0859,0.1797 -0.1632,0.2955 -0.2318,0.3475 -0.0687,0.0519 -0.1583,0.0779 -0.269,0.0779 h -0.3231 v -1.0568 h -0.34 v 2.5 h 0.6966 c 0.2748,0 0.4853,-0.0619 0.6315,-0.1857 0.1463,-0.1238 0.2194,-0.303 0.2194,-0.5375 0,-0.1652 -0.0449,-0.3 -0.1348,-0.4045 -0.0898,-0.1045 -0.2163,-0.1684 -0.3793,-0.1918 m -0.6934,1.0415 v -0.8872 h 0.3703 c 0.1617,0 0.2821,0.0363 0.3614,0.1088 0.0792,0.0725 0.1188,0.1836 0.1188,0.3332 0,0.144 -0.0421,0.2542 -0.1263,0.3306 -0.0842,0.0764 -0.2067,0.1146 -0.3676,0.1146 z"
         style="fill:#000000;fill-rule:evenodd"
         id="path20" />
      <path
         inkscape:connector-curvature="0"
         d="m 27.6162,193.3481 v -0.3663 h 0.1601 c 0.0786,0 0.1347,0.0137 0.1681,0.0412 0.0335,0.0274 0.0502,0.0726 0.0502,0.1356 0,0.0652 -0.0176,0.1131 -0.0529,0.1437 -0.0353,0.0305 -0.0905,0.0458 -0.1654,0.0458 z m 0,0.4113 v -0.3014 h 0.1573 c 0.0652,0 0.1125,0.0126 0.1418,0.0376 0.0292,0.025 0.0439,0.0654 0.0439,0.1212 0,0.0505 -0.0144,0.0869 -0.0432,0.1092 -0.0288,0.0223 -0.0763,0.0334 -0.1425,0.0334 z m -0.136,0.1112 h 0.2961 c 0.1022,0 0.1811,-0.0221 0.2365,-0.0663 0.0553,-0.0442 0.083,-0.1067 0.083,-0.1875 0,-0.0611 -0.0146,-0.1094 -0.0439,-0.1447 -0.0293,-0.0353 -0.0731,-0.0574 -0.1316,-0.0663 0.0657,-0.01 0.1171,-0.0379 0.1544,-0.0841 0.0373,-0.0462 0.0559,-0.105 0.0559,-0.1765 0,-0.0906 -0.0297,-0.1591 -0.0891,-0.2053 -0.0594,-0.0462 -0.1478,-0.0693 -0.2652,-0.0693 h -0.2961 z"
         style="fill:#000000;fill-rule:evenodd"
         id="path22" />
    </g>
    <path
       inkscape:connector-curvature="0"
       d="m 23.991325,159.74792 h 1.999998 v -10 h -1.999998 z"
       style="fill:none;stroke:#000000;stroke-width:0.24999999;stroke-linecap:round;stroke-linejoin:round"
       id="path28" />
    <g
       transform="matrix(0.99999998,0,0,-0.99999998,-24.008675,327.03232)"
       style="fill:none;stroke-linecap:round;stroke-linejoin:round"
       id="g40">
      <path
         inkscape:connector-curvature="0"
         d="m 45.5121,172.9428 c 0.0871,-0.0223 0.1613,-0.0644 0.2226,-0.1263 0.0614,-0.062 0.1379,-0.1856 0.2295,-0.3709 l 0.34,-0.6833 h -0.3634 l -0.2981,0.6313 c -0.086,0.1797 -0.1633,0.2955 -0.2319,0.3475 -0.0686,0.052 -0.1583,0.078 -0.2689,0.078 h -0.3231 v -1.0568 h -0.3401 v 2.5 h 0.6966 c 0.2748,0 0.4853,-0.0619 0.6316,-0.1858 0.1462,-0.1238 0.2193,-0.303 0.2193,-0.5374 0,-0.1652 -0.0449,-0.3001 -0.1347,-0.4046 -0.0899,-0.1044 -0.2163,-0.1684 -0.3794,-0.1917 m -0.6933,1.0415 v -0.8872 h 0.3702 c 0.1617,0 0.2822,0.0362 0.3614,0.1088 0.0793,0.0725 0.1189,0.1835 0.1189,0.3332 0,0.1439 -0.0421,0.2541 -0.1263,0.3305 -0.0842,0.0765 -0.2068,0.1147 -0.3677,0.1147 z"
         style="fill:#000000;fill-rule:evenodd"
         id="path36" />
      <path
         inkscape:connector-curvature="0"
         d="m 46.4479,172.7623 h 0.1359 v -0.8861 h 0.483 v -0.1139 h -0.6189 z"
         style="fill:#000000;fill-rule:evenodd"
         id="path38" />
    </g>
    <path
       inkscape:connector-curvature="0"
       d="M 7.6024242,136.16902 H 21.524524"
       style="fill:none;stroke:#000000;stroke-width:0.24999999;stroke-linecap:round;stroke-linejoin:round"
       id="path50" />
    <path
       inkscape:connector-curvature="0"
       d="m 24.933025,125.63922 v 7.4762"
       style="fill:none;stroke:#000000;stroke-width:0.24999999;stroke-linecap:round;stroke-linejoin:round"
       id="path54" />
    <path
       inkscape:connector-curvature="0"
       d="m 21.524524,133.11542 v 6.1073"
       style="fill:none;stroke:#000000;stroke-width:0.24999999;stroke-linecap:round;stroke-linejoin:round"
       id="path58" />
    <path
       inkscape:connector-curvature="0"
       d="m 21.524524,134.14212 3.408501,-1.0267"
       style="fill:none;stroke:#000000;stroke-width:0.24999999;stroke-linecap:round;stroke-linejoin:round"
       id="path62" />
    <path
       inkscape:connector-curvature="0"
       d="m 21.524524,138.19602 3.408501,1.0267"
       style="fill:none;stroke:#000000;stroke-width:0.24999999;stroke-linecap:round;stroke-linejoin:round"
       id="path64" />
    <g
       transform="matrix(0.99999998,0,0,-0.99999998,-24.008675,327.03232)"
       style="fill:none;stroke-linecap:round;stroke-linejoin:round"
       id="g72">
      <path
         inkscape:connector-curvature="0"
         d="m 46.272,190.955 v -0.7326 h 0.3201 c 0.1573,0 0.2694,0.0275 0.3363,0.0824 0.067,0.0549 0.1004,0.1453 0.1004,0.2712 0,0.1304 -0.0352,0.2262 -0.1058,0.2873 -0.0706,0.0612 -0.1809,0.0917 -0.3309,0.0917 z m 0,0.8226 v -0.6027 h 0.3146 c 0.1305,0 0.2249,0.025 0.2835,0.0751 0.0586,0.05 0.0878,0.1308 0.0878,0.2423 0,0.101 -0.0288,0.1738 -0.0863,0.2184 -0.0576,0.0446 -0.1526,0.0669 -0.285,0.0669 z M 46,192 h 0.5921 c 0.2046,0 0.3622,-0.0442 0.473,-0.1326 0.1108,-0.0885 0.1662,-0.2135 0.1662,-0.3751 0,-0.1222 -0.0293,-0.2186 -0.0879,-0.2892 -0.0585,-0.0706 -0.1462,-0.1148 -0.2631,-0.1327 0.1312,-0.0197 0.2342,-0.0758 0.3087,-0.1682 0.0746,-0.0924 0.1119,-0.2101 0.1119,-0.353 0,-0.1813 -0.0594,-0.3182 -0.1783,-0.4106 C 47.0038,190.0462 46.827,190 46.5921,190 H 46 Z"
         style="fill:#000000;fill-rule:evenodd"
         id="path70" />
    </g>
    <g
       transform="matrix(0.99999998,0,0,-0.99999998,-24.008675,327.03232)"
       style="fill:none;stroke-linecap:round;stroke-linejoin:round"
       id="g80">
      <path
         inkscape:connector-curvature="0"
         d="m 47.1901,196.4317 h 1.1867 v -0.2275 h -0.9163 v -0.5921 h 0.8764 v -0.2279 h -0.8764 v -0.7246 h 0.9418 v -0.2279 h -1.2122 z"
         style="fill:#000000;fill-rule:evenodd"
         id="path78" />
    </g>
    <g
       transform="matrix(0.99999998,0,0,-0.99999998,-24.008675,327.03232)"
       style="fill:none;stroke-linecap:round;stroke-linejoin:round"
       id="g88">
      <path
         inkscape:connector-curvature="0"
         d="m 48.3143,185.3219 c -0.0688,-0.0365 -0.1394,-0.0639 -0.2118,-0.0823 -0.0724,-0.0184 -0.1492,-0.0276 -0.2305,-0.0276 -0.2563,0 -0.4552,0.0907 -0.5967,0.2721 -0.1415,0.1813 -0.2123,0.4363 -0.2123,0.7648 0,0.3271 0.0713,0.5819 0.2137,0.7646 0.1425,0.1826 0.3409,0.274 0.5953,0.274 0.0813,0 0.1581,-0.009 0.2305,-0.0276 0.0724,-0.0184 0.143,-0.0458 0.2118,-0.0824 V 186.9 c -0.0662,0.0546 -0.1372,0.0962 -0.2131,0.1248 -0.0758,0.0285 -0.1522,0.0428 -0.2292,0.0428 -0.1759,0 -0.3077,-0.0679 -0.3951,-0.2037 -0.0875,-0.1358 -0.1312,-0.3408 -0.1312,-0.615 0,-0.2731 0.0437,-0.4775 0.1312,-0.6133 0.0874,-0.1358 0.2192,-0.2037 0.3951,-0.2037 0.0787,0 0.1557,0.0142 0.2311,0.0428 0.0755,0.0286 0.1458,0.0702 0.2112,0.1248 z"
         style="fill:#000000;fill-rule:evenodd"
         id="path86" />
    </g>
    <path
       inkscape:connector-curvature="0"
       d="m 24.933025,139.22272 0.0583,10.5252"
       style="fill:none;stroke:#000000;stroke-width:0.24999999;stroke-linecap:round;stroke-linejoin:round"
       id="path92" />
    <path
       inkscape:connector-curvature="0"
       d="M -11.638976,125.63922 H 38.674522"
       style="fill:none;stroke:#000000;stroke-width:0.24999999;stroke-linecap:round;stroke-linejoin:round"
       id="path96" />
    <circle
       transform="scale(1,-1)"
       cx="39.17448"
       cy="-125.63922"
       r="0.49999997"
       style="fill:none;stroke:#000000;stroke-width:0.24999999;stroke-linecap:round;stroke-linejoin:round"
       id="circle100" />
    <path
       inkscape:connector-curvature="0"
       d="M 24.933025,146.69882 H 38.674522"
       style="fill:none;stroke:#000000;stroke-width:0.24999999;stroke-linecap:round;stroke-linejoin:round"
       id="path104" />
    <circle
       transform="scale(1,-1)"
       cx="39.17448"
       cy="-146.69884"
       r="0.49999997"
       style="fill:none;stroke:#000000;stroke-width:0.24999999;stroke-linecap:round;stroke-linejoin:round"
       id="circle108" />
    <circle
       transform="scale(1,-1)"
       cx="28.242601"
       cy="-162.74791"
       r="0.49999997"
       style="fill:none;stroke:#000000;stroke-width:0.24999999;stroke-linecap:round;stroke-linejoin:round"
       id="circle112" />
    <path
       inkscape:connector-curvature="0"
       d="m 28.742622,162.74792 a 0.49999998,0.49999998 0 0 0 -0.999998,0 0.49999998,0.49999998 0 0 0 0.999998,0"
       style="fill:#000000;fill-rule:evenodd;stroke-width:0.99999994;stroke-linecap:round;stroke-linejoin:round"
       id="path116" />
    <path
       inkscape:connector-curvature="0"
       d="M -2.3975758,136.16902 H -11.138976"
       style="fill:none;stroke:#000000;stroke-width:0.24999999;stroke-linecap:round;stroke-linejoin:round"
       id="path120" />
    <circle
       transform="scale(1,-1)"
       cx="-11.639024"
       cy="-136.16904"
       r="0.49999997"
       style="fill:none;stroke:#000000;stroke-width:0.24999999;stroke-linecap:round;stroke-linejoin:round"
       id="circle124" />
    <circle
       transform="scale(1,-1)"
       cx="-11.639024"
       cy="-125.63922"
       r="0.49999997"
       style="fill:none;stroke:#000000;stroke-width:0.24999999;stroke-linecap:round;stroke-linejoin:round"
       id="circle126" />
    <g
       transform="matrix(0.99999998,0,0,-0.99999998,-24.008675,327.03232)"
       style="fill:none;stroke-linecap:round;stroke-linejoin:round"
       id="g154">
      <path
         inkscape:connector-curvature="0"
         d="m 49.8366,198.4994 h 1.3884 v -0.2845 h -0.5242 v -1.9307 h 0.5242 v -0.2848 h -1.3884 v 0.2848 h 0.5241 v 1.9307 h -0.5241 z"
         style="fill:#000000;fill-rule:evenodd"
         id="path150" />
      <path
         inkscape:connector-curvature="0"
         d="M 51.6966,196.9994 H 52.29 v -0.1138 h -0.4582 v -0.2961 H 52.27 v -0.1139 h -0.4382 v -0.3623 h 0.4709 v -0.1139 h -0.6061 z"
         style="fill:#000000;fill-rule:evenodd"
         id="path152" />
    </g>
    <g
       transform="matrix(0.99999998,0,0,-0.99999998,-24.008675,327.03232)"
       style="fill:none;stroke-linecap:round;stroke-linejoin:round"
       id="g160">
      <path
         inkscape:connector-curvature="0"
         d="m 49.6923,184.5588 h 1.3883 v -0.2845 h -0.5241 v -1.9307 h 0.5241 v -0.2848 h -1.3883 v 0.2848 h 0.5241 v 1.9307 h -0.5241 z"
         style="fill:#000000;fill-rule:evenodd"
         id="path156" />
      <path
         inkscape:connector-curvature="0"
         d="m 52.1391,182.0942 c -0.0344,-0.0182 -0.0697,-0.032 -0.1059,-0.0411 -0.0362,-0.009 -0.0746,-0.0138 -0.1152,-0.0138 -0.1282,0 -0.2277,0.0453 -0.2984,0.136 -0.0708,0.0907 -0.1062,0.2182 -0.1062,0.3824 0,0.1636 0.0357,0.291 0.1069,0.3823 0.0712,0.0913 0.1704,0.137 0.2977,0.137 0.0406,0 0.079,-0.005 0.1152,-0.0138 0.0362,-0.009 0.0715,-0.0229 0.1059,-0.0412 v -0.1387 c -0.0331,0.0273 -0.0686,0.0481 -0.1066,0.0623 -0.0379,0.0143 -0.0761,0.0215 -0.1145,0.0215 -0.088,0 -0.1539,-0.034 -0.1976,-0.1019 -0.0438,-0.0679 -0.0656,-0.1704 -0.0656,-0.3075 0,-0.1365 0.0218,-0.2388 0.0656,-0.3067 0.0437,-0.0679 0.1096,-0.1018 0.1976,-0.1018 0.0393,0 0.0778,0.007 0.1155,0.0214 0.0377,0.0143 0.0729,0.0351 0.1056,0.0624 z"
         style="fill:#000000;fill-rule:evenodd"
         id="path158" />
    </g>
    <g
       transform="matrix(0.99999998,0,0,-0.99999998,-24.008675,327.03232)"
       style="fill:none;stroke-linecap:round;stroke-linejoin:round"
       id="g166">
      <path
         inkscape:connector-curvature="0"
         d="m 38.8443,194.5442 h 1.3884 v -0.2845 h -0.5242 v -1.9307 h 0.5242 v -0.2848 h -1.3884 v 0.2848 h 0.5241 v 1.9307 h -0.5241 z"
         style="fill:#000000;fill-rule:evenodd"
         id="path162" />
      <path
         inkscape:connector-curvature="0"
         d="m 40.8195,192.5217 v -0.3663 h 0.1601 c 0.0786,0 0.1347,0.0137 0.1681,0.0411 0.0335,0.0275 0.0502,0.0727 0.0502,0.1356 0,0.0653 -0.0176,0.1132 -0.0529,0.1437 -0.0353,0.0306 -0.0904,0.0459 -0.1654,0.0459 z m 0,0.4113 v -0.3014 h 0.1573 c 0.0652,0 0.1125,0.0125 0.1418,0.0375 0.0292,0.0251 0.0439,0.0655 0.0439,0.1212 0,0.0505 -0.0144,0.0869 -0.0432,0.1092 -0.0288,0.0223 -0.0763,0.0335 -0.1425,0.0335 z m -0.136,0.1112 h 0.2961 c 0.1022,0 0.1811,-0.0222 0.2365,-0.0664 0.0553,-0.0442 0.083,-0.1067 0.083,-0.1875 0,-0.0611 -0.0146,-0.1093 -0.0439,-0.1446 -0.0293,-0.0353 -0.0731,-0.0574 -0.1316,-0.0663 0.0657,-0.01 0.1171,-0.038 0.1544,-0.0842 0.0373,-0.0462 0.056,-0.105 0.056,-0.1764 0,-0.0907 -0.0298,-0.1591 -0.0892,-0.2053 -0.0594,-0.0462 -0.1478,-0.0693 -0.2652,-0.0693 h -0.2961 z"
         style="fill:#000000;fill-rule:evenodd"
         id="path164" />
    </g>
    <path
       inkscape:connector-curvature="0"
       d="m 24.933025,130.10982 -0.351103,-0.5873"
       style="fill:none;stroke:#000000;stroke-width:0.24999999;stroke-linecap:round;stroke-linejoin:round"
       id="path174" />
    <path
       inkscape:connector-curvature="0"
       d="m 24.933025,143.74232 -0.351103,-0.5873"
       style="fill:none;stroke:#000000;stroke-width:0.24999999;stroke-linecap:round;stroke-linejoin:round"
       id="path176" />
    <path
       inkscape:connector-curvature="0"
       d="m 15.549524,136.16902 0.587301,-0.3511"
       style="fill:none;stroke:#000000;stroke-width:0.24999999;stroke-linecap:round;stroke-linejoin:round"
       id="path178" />
    <path
       inkscape:connector-curvature="0"
       d="m 24.933025,130.10982 0.351199,-0.5873"
       style="fill:none;stroke:#000000;stroke-width:0.24999999;stroke-linecap:round;stroke-linejoin:round"
       id="path186" />
    <path
       inkscape:connector-curvature="0"
       d="m 24.933025,143.74232 0.351199,-0.5873"
       style="fill:none;stroke:#000000;stroke-width:0.24999999;stroke-linecap:round;stroke-linejoin:round"
       id="path188" />
    <path
       inkscape:connector-curvature="0"
       d="m 15.549524,136.16902 0.587301,0.3512"
       style="fill:none;stroke:#000000;stroke-width:0.24999999;stroke-linecap:round;stroke-linejoin:round"
       id="path190" />
    <g
       transform="matrix(0.99999998,0,0,-0.99999998,-24.008675,327.03232)"
       style="fill:none;stroke-linecap:round;stroke-linejoin:round"
       id="g198">
      <path
         inkscape:connector-curvature="0"
         d="m 63.1484,203.258 0.5878,2.2151 h 0.3501 l -0.732,-2.5 h -0.4102 l -0.7317,2.5 h 0.3502 z m 2.8098,-0.1894 c -0.0827,-0.0481 -0.1679,-0.0841 -0.2554,-0.1082 -0.0876,-0.024 -0.1772,-0.036 -0.2688,-0.036 -0.2903,0 -0.5173,0.0871 -0.6809,0.2613 -0.1635,0.1742 -0.2453,0.4153 -0.2453,0.7234 0,0.3081 0.0818,0.5492 0.2453,0.7234 0.1636,0.1742 0.3906,0.2613 0.6809,0.2613 0.0906,0 0.1788,-0.0117 0.2647,-0.0351 0.086,-0.0234 0.1725,-0.0596 0.2595,-0.1088 v -0.3231 c -0.0816,0.0725 -0.1635,0.125 -0.2456,0.1573 -0.082,0.0324 -0.1749,0.0486 -0.2786,0.0486 -0.1931,0 -0.3416,-0.0625 -0.4454,-0.1876 -0.1038,-0.125 -0.1557,-0.3037 -0.1557,-0.536 0,-0.231 0.0522,-0.4093 0.1565,-0.5349 0.1044,-0.1255 0.2526,-0.1883 0.4446,-0.1883 0.1072,0 0.2032,0.0164 0.2881,0.0493 0.0849,0.0329 0.1636,0.084 0.2361,0.1533 z m 2.0645,0 c -0.0827,-0.0481 -0.1679,-0.0841 -0.2555,-0.1082 -0.0875,-0.024 -0.1771,-0.036 -0.2687,-0.036 -0.2904,0 -0.5173,0.0871 -0.6809,0.2613 -0.1636,0.1742 -0.2454,0.4153 -0.2454,0.7234 0,0.3081 0.0818,0.5492 0.2454,0.7234 0.1636,0.1742 0.3905,0.2613 0.6809,0.2613 0.0905,0 0.1788,-0.0117 0.2647,-0.0351 0.086,-0.0234 0.1725,-0.0596 0.2595,-0.1088 v -0.3231 c -0.0817,0.0725 -0.1635,0.125 -0.2456,0.1573 -0.082,0.0324 -0.1749,0.0486 -0.2786,0.0486 -0.1931,0 -0.3416,-0.0625 -0.4454,-0.1876 -0.1038,-0.125 -0.1557,-0.3037 -0.1557,-0.536 0,-0.231 0.0522,-0.4093 0.1565,-0.5349 0.1044,-0.1255 0.2526,-0.1883 0.4446,-0.1883 0.1072,0 0.2032,0.0164 0.2881,0.0493 0.0849,0.0329 0.1636,0.084 0.2361,0.1533 z"
         style="fill:#000000;fill-rule:evenodd"
         id="path196" />
    </g>
    <path
       inkscape:connector-curvature="0"
       d="m 28.284023,162.74792 v 2.171"
       style="fill:none;stroke:#000000;stroke-width:0.24999999;stroke-linecap:round;stroke-linejoin:round"
       id="path202" />
    <path
       inkscape:connector-curvature="0"
       d="m 29.223624,164.91892 h -1.8792"
       style="fill:none;stroke:#000000;stroke-width:0.24999999;stroke-linecap:round;stroke-linejoin:round"
       id="path206" />
    <path
       inkscape:connector-curvature="0"
       d="m 28.910424,165.28872 h -1.2528"
       style="fill:none;stroke:#000000;stroke-width:0.24999999;stroke-linecap:round;stroke-linejoin:round"
       id="path210" />
    <path
       inkscape:connector-curvature="0"
       d="M 28.597223,165.65852 H 27.970825"
       style="fill:none;stroke:#000000;stroke-width:0.24999999;stroke-linecap:round;stroke-linejoin:round"
       id="path214" />
    <g
       transform="matrix(0.99999998,0,0,-0.99999998,-24.008675,327.03232)"
       style="fill:none;stroke-linecap:round;stroke-linejoin:round"
       id="g222">
      <path
         inkscape:connector-curvature="0"
         d="m 51.205,157.2272 c -0.0905,-0.0836 -0.1925,-0.1469 -0.3058,-0.19 -0.1134,-0.0431 -0.2359,-0.0647 -0.3675,-0.0647 -0.3172,0 -0.564,0.1137 -0.7403,0.3409 -0.1763,0.2272 -0.2645,0.5457 -0.2645,0.9553 0,0.4088 0.0893,0.7273 0.2679,0.9556 0.1786,0.2284 0.427,0.3425 0.745,0.3425 0.105,0 0.2055,-0.0148 0.3016,-0.0445 0.096,-0.0297 0.1887,-0.0746 0.2782,-0.1348 v -0.3469 c -0.0906,0.086 -0.1833,0.1494 -0.2782,0.1902 -0.095,0.0408 -0.1955,0.0612 -0.3016,0.0612 -0.2197,0 -0.3846,-0.0851 -0.4946,-0.2554 -0.11,-0.1703 -0.165,-0.4263 -0.165,-0.7679 0,-0.3471 0.0534,-0.604 0.16,-0.771 0.1066,-0.1669 0.2705,-0.2504 0.4915,-0.2504 0.0747,0 0.1402,0.009 0.1966,0.026 0.0565,0.0173 0.1075,0.0444 0.1531,0.0812 v 0.6716 H 50.518 v 0.278 h 0.687 z m 0.4484,2.2941 h 0.4287 l 0.8437,-2.058 v 2.058 h 0.3267 v -2.5 h -0.4287 l -0.844,2.058 v -2.058 h -0.3264 z m 2.5616,-2.222 c 0.2848,0 0.4835,0.07 0.5963,0.2101 0.1129,0.1401 0.1693,0.3932 0.1693,0.7593 0,0.3696 -0.0562,0.6244 -0.1685,0.7645 -0.1122,0.14 -0.3113,0.2101 -0.5971,0.2101 h -0.1607 v -1.944 z m 0.0069,2.222 c 0.3817,0 0.663,-0.1016 0.8439,-0.3048 0.1809,-0.2032 0.2713,-0.5191 0.2713,-0.9478 0,-0.4263 -0.0904,-0.7408 -0.2713,-0.9434 -0.1809,-0.2027 -0.4622,-0.304 -0.8439,-0.304 h -0.5077 v 2.5 z"
         style="fill:#000000;fill-rule:evenodd"
         id="path220" />
    </g>
    <g
       transform="matrix(0.99999998,0,0,-0.99999998,-24.008675,327.03232)"
       style="fill:none;stroke-linecap:round;stroke-linejoin:round"
       id="g248">
      <path
         inkscape:connector-curvature="0"
         d="m 17.0922,201.3931 0.4163,-2.5 h -0.8326 z"
         style="fill:#000000;fill-rule:evenodd;stroke:#000000;stroke-width:0.09"
         id="path238" />
      <path
         inkscape:connector-curvature="0"
         d="m 17.0922,190.8633 -0.4163,2.5 h 0.8326 z"
         style="fill:#000000;fill-rule:evenodd;stroke:#000000;stroke-width:0.09"
         id="path240" />
      <g
         id="g246">
        <path
           inkscape:connector-curvature="0"
           d="m 13.7992,194.8782 2.5,0.8333 -2.5,0.8334"
           style="stroke:#000000;stroke-width:0.09"
           id="path242" />
        <path
           inkscape:connector-curvature="0"
           d="m 15.2992,197.3782 h 1"
           style="stroke:#000000;stroke-width:0.09"
           id="path244" />
      </g>
    </g>
    <path
       inkscape:connector-curvature="0"
       d="m -6.9164755,125.63922 v 10.5298"
       style="fill:none;stroke:#000000;stroke-width:0.09;stroke-linecap:round;stroke-linejoin:round"
       id="path250" />
    <g
       transform="matrix(0.99999998,0,0,-0.99999998,-24.008675,327.03232)"
       style="fill:none;stroke-linecap:round;stroke-linejoin:round"
       id="g276">
      <path
         inkscape:connector-curvature="0"
         d="m 37.529,201.3931 0.4163,-2.5 h -0.8326 z"
         style="fill:#000000;fill-rule:evenodd;stroke:#000000;stroke-width:0.09"
         id="path266" />
      <path
         inkscape:connector-curvature="0"
         d="m 37.529,190.8633 -0.4163,2.5 h 0.8326 z"
         style="fill:#000000;fill-rule:evenodd;stroke:#000000;stroke-width:0.09"
         id="path268" />
      <g
         id="g274">
        <path
           inkscape:connector-curvature="0"
           d="m 34.0767,194.2115 2.5,0.8334 -2.5,0.8333"
           style="stroke:#000000;stroke-width:0.09"
           id="path270" />
        <path
           inkscape:connector-curvature="0"
           d="m 36.0211,196.7115 v 0.2889 c 0,0.0131 0.0026,0.0392 0.0052,0.052 0.0025,0.0129 0.0101,0.0379 0.0151,0.0501 0.005,0.0121 0.0174,0.0352 0.0247,0.0461 0.0072,0.0108 0.0239,0.0311 0.0331,0.0404 0.0093,0.009 0.0295,0.0259 0.0404,0.0331 0.0109,0.007 0.034,0.0197 0.0461,0.0247 0.0121,0.005 0.0372,0.0126 0.0501,0.0152 0.0128,0.002 0.0389,0.005 0.052,0.005 H 36.31 c 0.0131,0 0.0392,-0.003 0.052,-0.005 0.0129,-0.003 0.038,-0.0102 0.0501,-0.0152 0.0121,-0.005 0.0352,-0.0174 0.0461,-0.0247 0.0109,-0.007 0.0311,-0.0239 0.0404,-0.0331 0.0092,-0.009 0.0259,-0.0295 0.0331,-0.0404 0.0073,-0.0109 0.0197,-0.034 0.0247,-0.0461 0.005,-0.0121 0.0126,-0.0372 0.0152,-0.0501 0.0025,-0.0128 0.0051,-0.0389 0.0051,-0.052 v -0.2889 h -1 v 0.2778 c 0,0.0109 0.0021,0.0326 0.0043,0.0434 0.0021,0.0107 0.0084,0.0316 0.0126,0.0416 0.0042,0.0101 0.0145,0.0294 0.0205,0.0385 0.0061,0.009 0.02,0.0259 0.0277,0.0336 0.0077,0.008 0.0246,0.0216 0.0336,0.0277 0.0091,0.006 0.0284,0.0163 0.0385,0.0205 0.0101,0.004 0.0309,0.0105 0.0417,0.0127 0.0107,0.002 0.0324,0.004 0.0433,0.004 0.0109,0 0.0327,-0.002 0.0434,-0.004 0.0107,-0.002 0.0316,-0.008 0.0416,-0.0127 0.0101,-0.004 0.0294,-0.0145 0.0385,-0.0205 0.009,-0.006 0.0259,-0.0199 0.0336,-0.0277 0.0078,-0.008 0.0216,-0.0246 0.0277,-0.0336 0.006,-0.009 0.0163,-0.0284 0.0205,-0.0385 0.0042,-0.01 0.0105,-0.0309 0.0127,-0.0416 0.0021,-0.0108 0.0042,-0.0325 0.0042,-0.0434 m -0.4444,1.0556 v -0.4445 h 1 v 0.4445 m -0.5556,-0.4445 v 0.3333"
           style="stroke:#000000;stroke-width:0.09"
           id="path272" />
      </g>
    </g>
    <path
       inkscape:connector-curvature="0"
       d="m 13.520324,125.63922 v 10.5298"
       style="fill:none;stroke:#000000;stroke-width:0.09;stroke-linecap:round;stroke-linejoin:round"
       id="path278" />
    <g
       transform="matrix(0.99999998,0,0,-0.99999998,-24.008675,327.03232)"
       style="fill:none;stroke-linecap:round;stroke-linejoin:round"
       id="g304">
      <path
         inkscape:connector-curvature="0"
         d="m 58.5854,201.3931 0.4162,-2.5 h -0.8325 z"
         style="fill:#000000;fill-rule:evenodd;stroke:#000000;stroke-width:0.09"
         id="path294" />
      <path
         inkscape:connector-curvature="0"
         d="m 58.5854,180.3335 -0.4163,2.5 h 0.8325 z"
         style="fill:#000000;fill-rule:evenodd;stroke:#000000;stroke-width:0.09"
         id="path296" />
      <g
         id="g302">
        <path
           inkscape:connector-curvature="0"
           d="m 55.4604,189.0022 2.5,0.8333 -2.5,0.8333"
           style="stroke:#000000;stroke-width:0.09"
           id="path298" />
        <path
           inkscape:connector-curvature="0"
           d="m 56.9604,191.9466 v -0.2222 c 0,-0.0109 0.0021,-0.0326 0.0042,-0.0434 0.0022,-0.0107 0.0085,-0.0316 0.0127,-0.0416 0.0042,-0.0101 0.0145,-0.0294 0.0205,-0.0385 0.0061,-0.009 0.0199,-0.0259 0.0277,-0.0336 0.0077,-0.008 0.0246,-0.0216 0.0336,-0.0277 0.0091,-0.006 0.0284,-0.0163 0.0385,-0.0205 0.01,-0.004 0.0309,-0.0105 0.0416,-0.0127 0.0107,-0.002 0.0325,-0.004 0.0434,-0.004 h 0.5555 c 0.011,0 0.0327,0.002 0.0434,0.004 0.0107,0.002 0.0316,0.008 0.0417,0.0127 0.0101,0.004 0.0293,0.0145 0.0384,0.0205 0.0091,0.006 0.026,0.0199 0.0337,0.0277 0.0077,0.008 0.0215,0.0246 0.0276,0.0336 0.0061,0.009 0.0164,0.0284 0.0205,0.0385 0.0042,0.0101 0.0106,0.0309 0.0127,0.0417 0.0021,0.0107 0.0043,0.0324 0.0043,0.0433 v 0.2222 m -1,0.7778 V 192.28 h 1 v 0.4444 M 57.4048,192.28 v 0.3333"
           style="stroke:#000000;stroke-width:0.09"
           id="path300" />
      </g>
    </g>
    <path
       inkscape:connector-curvature="0"
       d="m 34.576725,125.63922 v 21.0596"
       style="fill:none;stroke:#000000;stroke-width:0.09;stroke-linecap:round;stroke-linejoin:round"
       id="path306" />
    <path
       inkscape:connector-curvature="0"
       d="m 21.524524,134.14212 3.408501,-1.0267"
       style="fill:none;stroke:#000000;stroke-width:0.24999999;stroke-linecap:round;stroke-linejoin:round"
       id="path310" />
    <path
       inkscape:connector-curvature="0"
       d="m 24.991323,159.74792 v 3"
       style="fill:none;stroke:#000000;stroke-width:0.24999999;stroke-linecap:round;stroke-linejoin:round"
       id="path312" />
    <path
       inkscape:connector-curvature="0"
       d="m 24.991323,162.74792 h 6.5854"
       style="fill:none;stroke:#000000;stroke-width:0.24999999;stroke-linecap:round;stroke-linejoin:round"
       id="path314" />
    <path
       inkscape:connector-curvature="0"
       d="m 31.576723,162.74792 v -16.0491"
       style="fill:none;stroke:#000000;stroke-width:0.24999999;stroke-linecap:round;stroke-linejoin:round"
       id="path316" />
  </g>
</svg>
